<?xml version="1.0" standalone="no"?>
<!DOCTYPE svg PUBLIC "-//W3C//DTD SVG 1.1//EN" "http://www.w3.org/Graphics/SVG/1.1/DTD/svg11.dtd" >
<!--
2013-9-30: Created.
-->
<svg>
<metadata>
Created by iconfont
</metadata>
<defs>

<font id="iconfont" horiz-adv-x="1024" >
  <font-face
    font-family="iconfont"
    font-weight="500"
    font-stretch="normal"
    units-per-em="1024"
    ascent="896"
    descent="-128"
  />
    <missing-glyph />
    
    <glyph glyph-name="huidingbu" unicode="&#58988;" d="M542.800839 682.440692c-5.525732 5.525732-11.665434 8.18627-17.805136 9.618867-4.093135 2.046567-8.902568 2.762866-13.712002 2.762866-4.809433 0-9.618867-0.716299-13.712002-2.762866-6.139702-1.330269-12.381733-4.093135-17.805136-9.618867L143.617867 346.394324c-15.04227-15.04227-15.04227-38.373139 0-53.517738 15.04227-15.04227 38.373139-15.04227 53.517738 0L476.901369 572.64235l0-598.006995c0-19.237734 15.04227-34.280004 34.280004-34.280004 19.237734 0 34.280004 15.04227 34.280004 34.280004L545.461377 572.64235l279.765764-279.765764c15.04227-15.04227 38.373139-15.04227 53.517738 0 15.04227 15.04227 15.04227 38.373139 0 53.517738L542.800839 682.440692 542.800839 682.440692zM922.746078 831.94244 99.718997 831.94244c-19.237734 0-34.280004-15.04227-34.280004-34.280004 0-19.237734 15.04227-34.280004 34.280004-34.280004l822.924753 0c19.237734 0 34.280004 15.04227 34.280004 34.280004C957.026082 816.797842 941.881483 831.94244 922.746078 831.94244L922.746078 831.94244z"  horiz-adv-x="1024" />

    
    <glyph glyph-name="downarrow" unicode="&#59026;" d="M906.092102 587.015763c0-2.486634-0.901533-4.976338-2.721994-6.945179L524.814352 170.80848c-3.837398-4.148483-10.311857-4.40124-14.461363-0.563842-4.14746 3.838422-4.40124 10.311857-0.563842 14.461363l378.556779 409.261081c3.837398 4.149507 10.31288 4.40124 14.46034 0.563842C904.986931 592.515011 906.092102 589.768457 906.092102 587.015763zM523.796162 177.33001c0-2.739391-1.092891-5.471618-3.255137-7.486508-4.133134-3.853771-10.608615-3.62762-14.46341 0.505513L120.654452 583.694111c-3.852748 4.133134-3.62762 10.606569 0.505513 14.462387 4.134157 3.853771 10.608615 3.62762 14.46341-0.505513l385.424186-413.345096C522.886443 182.335001 523.796162 179.828924 523.796162 177.33001z"  horiz-adv-x="1024" />

    
    <glyph glyph-name="xiajiantou" unicode="&#58953;" d="M832.522014 523.532917c0-8.782014-3.235694-17.565051-9.708106-24.26873L535.638373 201.778842c-12.932544-13.408381-33.9226-13.408381-46.855144 0l-287.172465 297.485345c-12.9438 13.408381-12.9438 35.130102 0 48.538483 12.932544 13.408381 33.9226 13.408381 46.855144 0l263.744893-273.215592 263.747963 273.215592c12.932544 13.408381 33.9226 13.408381 46.855144 0C829.28632 541.097968 832.522014 532.31493 832.522014 523.532917z"  horiz-adv-x="1024" />

    
    <glyph glyph-name="xiajiantou1" unicode="&#58901;" d="M862.752 569.984H161.248l349.696-371.936L862.72 569.984z"  horiz-adv-x="1024" />

    
    <glyph glyph-name="yousanjiaoxing" unicode="&#58948;" d="M325.456896-50.27968M882.05824-50.27968M236.027904-65.161472M960.132096-65.161472M154.215424-64.16M816.575488 302.208768 209.619968 748.929792 209.619968-145.022208ZM871.471104-64.16"  horiz-adv-x="1024" />

    
    <glyph glyph-name="weibo2" unicode="&#58927;" d="M434.6 634.6c-63 5.3-209.2-42.5-345.8-265.1 0 0-100.2-180.1 103.7-288.1 0 0 170.2-101.2 410.6-30.1 0 0 243.9 80.7 221.6 249.9 0 0-18.5 70.1-104.7 90.6 0 0-26.6 3.5-11.6 30.1 0 0 38.2 77.9-36.4 110 0 0-66.5 15.9-147.2-24.8 0 0-53.1-30.1-27.6 35.4-0.6 0.8 11.8 85.8-62.6 92.1z m242.9-365.3c0-92.1-118.9-193.3-264.4-193.3-171 0-264.4 74.6-264.4 167.5 0 92.1 134.8 180.9 281 180.9 145.8 0 247.8-63 247.8-155.1z m0 0M530.2 237.2c-4.3-67.3-61.2-119.7-136.6-122.4-91.3-3.5-151.5 38.2-140.9 120.7 8.1 67.3 66.5 124.2 140.9 124.2 75.4-0.1 141.9-40.8 136.6-122.5z m-89.5 18c0 9.9-8.1 17.7-17.7 17.7s-17.7-8.1-17.7-17.7 8.1-17.7 17.7-17.7c9.6-1 17.7 6.8 17.7 17.7z m-47.8-42.8c0 24-22.3 43.5-47.1 40s-48.8-22.3-48.8-46c0-24 20.5-41.7 46-41.7 25.8-1.1 49.9 23.7 49.9 47.7z m279.2 449.5c4.3 1.8 8.1 2.5 12.4 3.5 4.3 0.8 8.9 1.8 14.2 2.5-15.2-1.8-2.5-0.8 0 0 3.5 0 7.1 0.8 11.6 0.8h22.3c4.3 0 8.1-0.8 12.4-0.8-11.6 1.8-3.5 0.8-0.8 0 2.8-0.8 5.3-0.8 8.9-1.8 8.9-1.8 17.7-4.3 26.6-8.1 2.5-0.8 4.3-1.8 7.1-2.5-8.9 3.5-0.8 0 0.8 0 5.3-2.5 10.6-5.3 16.7-8.9 4.3-2.5 9.9-6.1 14.2-8.9 2.5-1.8 4.3-3.5 7.1-5.3-7.1 5.3 0.8-0.8 1.8-1.8 9.9-8.1 18.5-16.7 27.6-26.6 0.8-0.8 7.1-8.9 0.8-0.8 1.8-1.8 2.5-4.3 4.3-6.1 2.5-4.3 5.3-8.9 8.1-12.4 2.5-4.3 4.3-8.9 6.1-13.4 3.5-8.1-2.5 8.1 0 0 0.8-2.5 1.8-5.3 3.5-8.9 2.5-8.1 4.3-16.7 6.1-25.8 0-1.8 0.8-4.3 0.8-6.1-1.8 11.6-0.8 4.3 0 1.8 0.8-4.3 0.8-8.9 0.8-14.2 0-7.1 0-15.2-0.8-22.3 0-3.5-0.8-7.1-0.8-10.6 1.8 14.2 0 0-0.8-2.5-1.8-9.9-4.3-18.5-7.1-27.6-1.8-5.3-8.1-18.5-0.8-2.5-8.1-17.7-5.3-39 13.4-49.6 15.9-8.9 41.7-5.3 49.6 13.4 22.3 48.8 26.6 107.3 11.6 159.6-26.6 94.1-118.9 157.9-213.8 165.7-26.6 1.8-55.9 0-80.7-8.9-18.5-6.1-31.1-24.8-25.8-44.3 2.7-19.5 23.9-33.6 42.6-26.6z m0 0M690.6 561c2.5 0.8 4.3 0.8 7.1 1.8 8.1 1.8-4.3 0 2.5 0 3.5 0 8.1 0.8 11.6 0.8 14.2 0 30.1-3.5 41.7-14.2 1.8-1.8 3.5-3.5 6.1-5.3 0 0 5.3-6.1 2.5-3.5 1.8-1.8 2.5-4.3 3.5-6.1 1-1.8 1.8-2.5 1.8-4.3-0.8 1.8-0.8 1.8 0-0.8 1.8-4.3 2.5-8.9 3.5-13.4 1.8-7.1 0 4.3 0-1.8v-18.7c0-1.8 0-3.5-0.8-4.3 0.8 8.1 0 0.8 0 0-0.8-2.5-0.8-5.3-1.8-8.1-3.5-12.4 4.3-26.6 16.7-29.3 13.4-3.5 25.8 4.3 29.3 16.7 12.4 40 2.5 87-29.3 114.3-28.3 25.8-72.9 34.7-110 24-26.9-9.8-13.5-55.9 15.6-47.8z m0 0"  horiz-adv-x="1024" />

    
    <glyph glyph-name="weixin1" unicode="&#58900;" d="M836.992 62.908c-2.963 8.818-5.536 16.463-5.536 31.334 0 11.195 3.232 13.549 11.708 19.688 5.113 3.705 12.445 9.029 22.549 19.5 28.636 29.645 45.994 49.755 56.094 72.748 10.072 22.94 13.084 49.157 13.084 91.108 0 47.781-29.726 95.191-74.967 130.644-45.22 35.419-105.861 58.844-167.939 58.844-65.433 0-118.502-20.123-157.831-51.443-33.288-26.519-56.788-61.087-69.638-98.267-12.844-37.164-15.077-76.929-5.881-113.873 9.648-38.764 31.927-74.482 67.743-100.862 31.786-23.42 69.3-40.893 109.139-49.869 37.347-8.423 76.778-9.384 115.485-0.794 48.493 10.756 53.097 6.294 62.281-2.658 4.596-4.475 10.544-10.268 26.669-15.482-0.981 3.492-1.991 6.508-2.96 9.382z m-637.02 172.174c-2.583-7.112-5.18-14.244-6.497-24.561 11.114 3.436 20.963 9.233 30.715 14.969 19.239 11.33 38.19 22.477 66.625 16.781 22.712-4.556 39.454-7.719 57.193-9.734 16.541-1.881 34.031-2.768 58.17-2.874-6.163 15.779-8.378 34.656-7.948 53.867 0.574 25.79 5.923 52.332 12.801 72.813 18.38 54.622 41.42 75.901 76.153 107.972l1.917 1.773c4.285 3.951 6.784 6.238 9.451 8.392l-0.004 0.006c2.557 2.074 5.341 4.065 10.236 7.489 24.122 16.864 49.403 29.932 77.065 38.776 26.51 8.476 55.21 13.088 87.143 13.463-4.534 18.525-11.121 35.914-19.442 52.08-30.634 59.564-84.974 102.816-148.25 127.434-63.414 24.66-135.779 30.628-202.337 15.58-24.678-5.577-48.553-14.055-70.854-25.525-47.982-24.68-84.285-56.546-108.927-92.254-23.632-34.237-36.58-72.062-38.872-110.5-2.288-38.448 6.062-77.581 25.01-114.421 20.239-39.358 52.595-76.143 96.96-106.761l1.482-1.025V277c0.002-20.456-3.894-31.179-7.79-41.918zM71.684 352.997c-23.233 42.377-38.019 91.377-38.019 137.208 0 37.262 11.725 77.678 30.396 114.663 19.749 39.12 47.337 74.513 77.08 98.369 68.154 54.687 146.687 82.913 226.089 85.362 80.43 2.487 161.75-21.46 234.078-71.083 31.082-21.308 54.918-44.518 73.767-70.967 18.815-26.417 32.641-56.055 43.71-90.275 6.818-21.019 8.939-21.249 21.616-22.592 4.625-0.49 10.483-1.117 18.104-2.629 25.884-5.144 51.909-13.807 76.083-25.558 23.139-11.246 44.626-25.35 62.721-41.952 12.706-11.659 24.552-23.214 35.279-35.871 10.764-12.711 20.326-26.457 28.366-42.393 20.433-40.508 30.012-77.904 28.57-115.023-1.441-37.111-13.915-73.831-37.543-112.957-7.759-12.84-20.733-28.925-34.685-43.82-13.413-14.334-27.788-27.634-39.342-35.95 4.43-19.004 9.323-32.368 13.202-42.957 7.82-21.377 11.762-32.136 0.749-53.599l-1.029-2.007-2.183 0.188c-18.389 1.579-29.877 8.984-42.545 17.139l-4.193 2.687v-0.008a367.028 367.028 0 0 1-18.873 11.207c-5.977 3.322-12.335 6.673-19.297 10.332-17.021 8.948-17.521 8.818-31.867 4.849-3.139-0.867-6.904-1.913-12.16-3.22-31.957-7.967-44.279-7.841-69.983-7.568-4.633 0.049-9.783 0.103-17.497 0.103-51.612 0-110.596 22.585-158.919 55.796-46.877 32.214-83.886 74.556-94.68 116.157-20.878-4.629-42.163-5.671-63.2-4.519-22.016 1.196-43.779 4.819-64.525 9.229-32.779 6.978-58.976-10.133-83.982-26.47-16.251-10.616-32.048-20.933-49.212-24.657-14.853-3.225-21.944 1.828-24.128 11.907-3.273 15.063 6.589 42.143 15.858 67.591 4.669 12.815 9.196 25.235 11.718 35.222-34.147 19.431-66.147 55.435-89.524 98.058v0.008z m373.12 191.865c-7.582 8.671-12.687 20.77-12.687 35.727 0 8.626 6.31 17.854 15.071 24.878 8.761 7.018 20.123 11.999 30.027 11.999 23.384 0 37.988-11.018 44.371-25.248 2.536-5.64 3.758-11.81 3.709-18v-0.013a45.511 45.511 0 0 0-3.904-18.083c-6.651-14.975-21.639-26.81-44.176-26.81-11.423 0-23.604 5.464-32.411 15.55z m-214.412-0.007c-7.576 8.678-12.687 20.771-12.687 35.733 0 8.626 6.31 17.854 15.077 24.878 8.754 7.018 20.117 11.999 30.027 11.999 23.099 0 37.486-10.987 43.779-25.205 2.498-5.646 3.703-11.818 3.654-17.994a46.112 46.112 0 0 0-3.849-18.073c-6.569-15.003-21.381-26.881-43.584-26.881-11.423 0-23.609 5.458-32.417 15.543zM636.29 294.868c-5.252-11.199-16.943-19.781-35.409-19.781-18.768 0-30.04 8.59-34.934 19.81l2.866 1.331-2.866-1.319c-2.015 4.625-2.923 9.705-2.809 14.799 0.114 5.063 1.258 10.165 3.302 14.83 5.406 12.318 17.184 22.028 33.797 21.755 18.441-0.293 30.638-9.933 36.053-21.999a36.387 36.387 0 0 0 3.184-14.786c0.011-5.041-1.043-10.072-3.184-14.64z m117.321-17.257c-11.773 4.742-20.697 15.774-20.697 34.358 0 16.532 8.822 26.209 20.514 30.337 4.702 1.653 9.893 2.386 15.14 2.275a51.279 51.279 0 0 0 15.385-2.719c13.878-4.719 25.154-15.336 25.154-29.894 0-16.654-11.041-28.59-24.703-33.927-4.921-1.918-10.234-2.988-15.485-3.099-5.289-0.107-10.545 0.751-15.308 2.669z"  horiz-adv-x="1024" />

    
    <glyph glyph-name="zhifubao1" unicode="&#58990;" d="M1117.97988814 46.15280573999996c-2.34616108 1.00549761-156.52246003 89.82445245-439.23486913 203.94843027 78.26123002 116.13497302 131.88776879 232.26994607 134.73667864 238.63809752 3.01649281 6.70331735 2.84890987 14.07696642 0.16758296 20.27753498-0.33516586 0.67033173-0.67033173 1.50824641-1.00549762 2.17857814-0.33516586 0.67033173-0.83791468 1.34066346-1.17308053 2.01099522-0.50274881 0.67033173-0.83791468 1.17308055-1.34066347 1.84341224l-0.16758293 0.16758296c-0.50274881 0.50274881-1.00549761 1.17308055-1.5082464 1.67582933 0 0.16758294-0.16758294 0.16758294-0.33516587 0.16758292l-1.34066348 1.34066349c-0.16758294 0.16758294-0.33516586 0.33516586-0.67033172 0.50274879-0.33516586 0.33516586-0.67033173 0.50274881-1.17308056 0.83791467-0.50274881 0.33516586-0.83791468 0.50274881-1.34066346 0.83791466-0.16758294 0.16758294-0.33516586 0.16758294-0.50274878 0.33516588-3.68682452 2.17857813-8.04398081 3.35165866-12.56872002 3.35165867h-254.72605917v77.08814949h299.97345125c13.74180057 0 25.13744005 11.22805655 25.13744004 25.13744004s-11.22805655 25.13744005-25.13744004 25.13744004h-299.97345125v113.95639491c0 13.9093835-11.22805655 25.13744005-25.13744006 25.13744004s-25.13744005-11.22805655-25.13744006-25.13744004v-113.95639491h-303.32510993c-13.9093835 0-25.13744005-11.22805655-25.13744004-25.13744004s11.22805655-25.13744005 25.13744004-25.13744004h303.32510993v-77.08814949h-254.72605917c-13.9093835 0-25.13744005-11.22805655-25.13744005-25.13744007s11.22805655-25.13744005 25.13744005-25.13744004h519.6746773c-22.62369604-44.91222624-65.69251001-126.02236613-119.65421462-204.78634494-61.33535373 24.46710831-126.69269785 49.93971424-195.06653482 75.74748602l-1.34066345 0.50274881c-153.17080138 48.59905075-267.12719628 43.2363969-338.85269189-16.08796163-66.36284173-54.96720225-72.39582734-137.75317147-69.04416866-165.06918966 10.55772482-88.6513719 60.83260491-151.15980617 141.439996-175.79449743 25.30502299-7.70881495 53.12378996-11.56322243 82.4508034-11.56322241 44.40947741 0 92.33819644 8.88189547 140.60208134 26.31052058 79.93705935 28.82426458 153.50596725 78.93156175 207.30008893 140.93724721 17.59620803 20.27753497 34.52208433 41.7281505 50.61004597 63.68151478 287.2371483-115.63222425 445.10027181-206.12700842 447.44643289-207.3000889 12.56872002-6.03298562 27.48360111-0.67033173 33.51658674 11.89838826 6.03298562 12.73630295 0.67033173 27.65118406-11.8983883 33.68416968z m-557.88358619 131.04985411c-48.2638849-55.46995105-114.45914369-100.5497602-186.35222223-126.5251149-69.88208333-25.30502299-137.9207544-30.332511-191.21212729-13.9093835-61.16777078 18.76928857-98.03601619 65.02217827-106.24757995 133.73118106-1.67582932 14.91488109 1.67582932 79.26672763 51.2803777 120.15696343 29.99734512 24.80227418 72.06066148 37.20341127 124.68170265 37.20341129 47.25838729 0 103.06350419-9.88739309 166.07468723-29.99734514 63.68151477-23.96435951 124.51411971-47.76113611 181.99506598-70.55241507-12.90388589-17.26104215-26.47810352-34.18691847-40.21990409-50.10729717z"  horiz-adv-x="1024" />

    
    <glyph glyph-name="qq" unicode="&#58883;" d="M110.08 87.591c22.43-7.581 46.927-2.973 68.962 13.135 0.572-0.886 1.123-1.752 1.694-2.619-37.632-22.961-58.624-55.02-58.624-90.762 0-73.511 86.469-126.858 205.627-126.858 63.193 0 121.758 16.404 159.39 44.288 12.229-0.689 23.138-0.689 35.505-0.02 37.632-27.864 96.177-44.268 159.37-44.268 119.138 0 205.646 53.347 205.646 126.858 0 35.663-20.913 67.624-58.387 90.605a99.888 99.888 0 0 1 1.713 2.638c21.977-15.99 46.316-20.618 68.766-13.016 67.17 22.823 70.833 140.012 40.192 238.69-16.266 52.342-46.16 93.361-71.07 120.655 0.295 3.78 0.453 7.542 0.453 11.343 0 28.947-7.582 57.029-22.528 83.672v0.374c0 190.327-153.265 345.187-341.642 345.187-188.396 0-341.661-154.86-341.661-345.187v-1.22c-14.632-26.388-22.056-54.213-22.056-82.807 0-3.446 0.118-6.931 0.394-10.476-25.226-27.451-55.473-68.785-71.857-121.54-30.661-98.718-26.998-215.868 40.113-238.672z m7.956 223.725c15.242 49.132 45.45 86.96 68.096 110.02a25.196 25.196 0 0 1 6.892 21.564c-0.827 5.317-1.26 10.397-1.26 15.34 0 21.681 6.301 43.047 18.688 63.429a25.488 25.488 0 0 1 3.623 14.828 79.882 79.882 0 0 0-0.236 5.79c0 162.56 130.678 294.813 291.288 294.813s291.289-132.253 291.289-294.813c0-1.753-0.079-3.446-0.197-5.16a25.277 25.277 0 0 1 3.683-14.828c12.642-20.559 19.042-42.102 19.042-64.04 0-5.159-0.453-10.377-1.359-15.93-1.339-7.917 1.221-15.951 6.833-21.721 22.37-22.902 52.264-60.475 67.407-109.292 26.959-86.784 17.507-167.286-8.211-176.03-13.332-4.51-29.125 9.708-38.952 21.445-5.336 6.42-13.41 9.807-21.937 8.881a25.137 25.137 0 0 1-19.594-13.233 324.714 324.714 0 0 0-31.252-47.97 25.242 25.242 0 0 1-4.549-21.918 25.215 25.215 0 0 1 14.69-16.876c35.152-14.651 55.277-35.88 55.277-58.25 0-42.181-69.651-76.485-155.274-76.485-55.512 0-107.185 14.828-134.813 38.715a25.174 25.174 0 0 1-16.463 6.124c-0.61 0-1.26-0.02-1.87-0.078-17.389-1.3-30.957-1.28-47.853 0.02-6.932 0.61-13.351-1.675-18.393-6.046-27.667-23.907-79.34-38.735-134.872-38.735-85.603 0-155.254 34.304-155.254 76.485 0 22.45 20.243 43.737 55.512 58.368 7.286 3.033 12.721 9.236 14.71 16.876a25.113 25.113 0 0 1-4.51 21.918c-11.874 15.183-22.37 31.35-31.231 48.049a25.163 25.163 0 0 1-19.633 13.253c-8.468 0.886-16.581-2.462-21.957-8.881-9.886-11.835-25.522-26.349-39.11-21.622-25.776 8.704-35.19 89.186-8.25 175.99z"  horiz-adv-x="1024" />

    
    <glyph glyph-name="weibo1" unicode="&#59038;" d="M737.006933 365.841067c52.224-40.721067 74.478933-97.553067 43.656534-164.078934-49.937067-107.861333-208.2816-171.9296-349.354667-160.768-165.1712 13.2096-279.688533 74.581333-294.1952 209.032534a88.849067 88.849067 0 0 0-0.4096 4.846933 227.669333 227.669333 0 0 0 5.8368 63.624533 284.330667 284.330667 0 0 0 49.117867 106.564267c3.652267 5.393067 10.205867 14.199467 19.421866 25.258667 15.1552 18.295467 32.529067 36.5568 51.882667 53.691733 39.936 35.293867 83.114667 61.201067 129.365333 73.489067 67.584 17.92 115.677867-7.918933 139.332267-59.050667 1.570133-3.447467 3.003733-6.826667 4.266667-10.205867 23.108267 8.6016 46.455467 13.5168 69.5296 12.970667 33.6896-0.8192 63.624533-13.550933 85.9136-40.0384 12.049067-14.2336 19.182933-31.095467 22.1184-49.493333 2.594133-16.384 1.8432-32.836267-1.2288-49.015467 7.918933-4.642133 16.315733-10.24 24.746666-16.827733z m-96.699733 11.844266c0.580267 1.365333 1.774933 4.778667 3.072 9.6256 3.072 11.776 4.266667 23.6544 2.696533 33.621334a32.392533 32.392533 0 0 1-6.894933 16.247466c-8.9088 10.581333-20.241067 15.428267-35.396267 15.7696-15.086933 0.375467-32.768-3.857067-50.722133-11.332266-10.683733-4.437333-18.875733-8.8064-22.9376-11.3664l-49.7664-31.163734L477.866667 457.762133a92.4672 92.4672 0 0 1-8.192 31.982934c-10.376533 22.391467-25.941333 30.788267-59.869867 21.777066-34.7136-9.216-69.085867-29.866667-101.6832-58.6752-16.520533-14.609067-31.505067-30.378667-44.544-46.08a300.714667 300.714667 0 0 1-16.2816-21.162666 218.453333 218.453333 0 0 1-38.1952-82.1248 160.768 160.768 0 0 1-4.1984-45.704534c9.898667-91.921067 95.573333-137.8304 231.765333-148.718933 115.473067-9.147733 246.033067 43.690667 282.0096 121.412267 15.598933 33.655467 5.870933 58.504533-23.688533 81.578666a158.139733 158.139733 0 0 1-35.293867 20.5824l-33.006933 12.526934 13.585067 32.529066z m6.280533 177.0496l3.8912 68.130134c88.064-4.983467 145.851733-50.005333 165.546667-130.6624l-66.321067-16.213334c-12.356267 50.5856-44.168533 75.3664-103.082666 78.7456z m-0.273066 136.533334l4.437333 68.130133c163.703467-10.6496 266.5472-102.229333 302.045867-268.151467l-66.7648-14.301866c-29.184 136.465067-106.939733 205.687467-239.7184 214.357333z"  horiz-adv-x="1024" />

    
    <glyph glyph-name="zhifubao" unicode="&#58890;" d="M230.4 319.488c-12.288-9.728-25.088-24.064-28.672-41.984-5.12-24.576-1.024-55.296 22.528-79.872 28.672-29.184 72.704-37.376 91.648-38.912 51.2-3.584 105.984 22.016 147.456 50.688 16.384 11.264 44.032 34.304 70.144 69.632-59.392 30.72-133.632 64.512-212.48 61.44-40.448-1.536-69.632-9.728-90.624-20.992z m752.64-135.68c26.112 61.44 40.96 129.024 40.96 200.192C1024 666.112 794.112 896 512 896S0 666.112 0 384s229.888-512 512-512c170.496 0 321.536 83.968 414.72 211.968-88.064 43.52-232.96 115.712-322.56 159.232-42.496-48.64-105.472-97.28-176.64-118.272-44.544-13.312-84.992-18.432-126.976-9.728-41.984 8.704-72.704 28.16-90.624 47.616-9.216 10.24-19.456 22.528-27.136 37.888 0.512-1.024 1.024-2.048 1.024-3.072 0 0-4.608 7.68-7.68 19.456-1.536 6.144-3.072 11.776-3.584 17.92-0.512 4.096-0.512 8.704 0 12.8-0.512 7.68 0 15.872 1.536 24.064 4.096 20.48 12.8 44.032 35.328 65.536 49.152 48.128 114.688 50.688 148.992 50.176 50.176-0.512 138.24-22.528 211.968-48.64 20.48 43.52 33.792 90.112 41.984 121.344h-307.2v33.28h157.696v66.56H272.384V593.92h190.464V660.48c0 9.216 2.048 16.384 16.384 16.384h74.752V593.92h207.36v-33.28h-207.36v-66.56h165.888s-16.896-92.672-68.608-184.32c115.2-40.96 278.016-104.448 331.776-125.952z"  horiz-adv-x="1024" />

    
    <glyph glyph-name="weixin" unicode="&#59001;" d="M371.226529 692.547633c-187.547442 0-341.167762-127.83631-341.167762-290.156664 0-93.698461 51.116462-170.613985 136.491188-230.204701l-34.122797-102.654378 119.256692 59.831547c42.687363-8.474254 76.915524-17.144184 119.497523-17.144184 10.701945 0 21.32863 0.526819 31.849951 1.369729-6.652967 22.833826-10.521321 46.706237-10.521321 71.481766 0 148.969264 128.001881 269.926827 290.066352 269.926827 11.04814 0 21.990916-0.812806 32.858432-2.016963C685.91789 590.420073 538.980641 692.547633 371.226529 692.547633zM260.398936 462.207464c-25.558231 0-51.372345 17.129132-51.372345 42.702415 0 25.678646 25.814114 42.566947 51.372345 42.566947s42.597051-16.903353 42.597051-42.566947C302.980935 479.336597 285.957167 462.207464 260.398936 462.207464zM499.168203 462.207464c-25.573283 0-51.236877 17.129132-51.236877 42.702415 0 25.678646 25.663595 42.566947 51.236877 42.566947 25.693698 0 42.702415-16.903353 42.702415-42.566947C541.870618 479.336597 524.846849 462.207464 499.168203 462.207464zM993.971337 189.149829c0 136.310564-136.491188 247.484353-289.780365 247.484353-162.320354 0-290.171716-111.173788-290.171716-247.484353 0-136.611604 127.851362-247.559613 290.171716-247.559613 33.972277 0 68.21549 8.549514 102.353339 17.11408l93.593097-51.236877-25.663595 85.269362C942.945187 44.079023 993.971337 112.204201 993.971337 189.149829zM610.10116 231.776984c-16.993665 0-34.137849 16.873249-34.137849 34.107745 0 17.023769 17.144184 34.152901 34.137849 34.152901 25.814114 0 42.702415-17.129132 42.702415-34.152901C652.803575 248.650233 635.915274 231.776984 610.10116 231.776984zM797.769017 231.776984c-16.873249 0-33.897018 16.873249-33.897018 34.107745 0 17.023769 17.023769 34.152901 33.897018 34.152901 25.558231 0 42.702415-17.129132 42.702415-34.152901C840.471432 248.650233 823.327248 231.776984 797.769017 231.776984z"  horiz-adv-x="1024" />

    
    <glyph glyph-name="chongzhi" unicode="&#58904;" d="M756.8 25.60000031000004l-467.20000031 0 0 736.00000032 467.20000031 0L756.8 25.60000031000004zM801.60000031 799.99999969c0 35.20000031-28.8 64.00000031-64.00000031 64.00000031l-428.80000031 0c-35.20000031 0-64.00000031-28.8-64.00000031-64.00000031l0-828.79999969c0-35.20000031 28.8-64.00000031 64.00000031-64.00000031l428.80000031 0c35.20000031 0 64.00000031 28.8 64.00000031 64.00000031L801.60000031 799.99999969zM452.79999969 816l137.59999969 0c3.19999969 0 6.40000031-3.19999969 6.40000031-6.40000031 0-3.19999969-3.19999969-6.40000031-6.40000032-6.40000031l-137.59999968 0c-3.19999969 0-6.40000031 3.19999969-6.40000032 6.40000031C446.40000031 812.80000031 449.6 816 452.79999969 816zM523.20000031-64.00000031000002c-19.2 0-31.99999969 16.00000031-31.99999968 31.99999969 0 19.2 16.00000031 31.99999969 31.99999968 31.99999968 19.2 0 31.99999969-16.00000031 31.99999969-31.99999968C555.2-48 539.19999969-64.00000031000002 523.20000031-64.00000031000002zM667.20000031 579.19999969l-28.8 28.8-99.19999968-99.19999969c-9.6-9.6-25.60000031-9.6-35.20000032 0l-99.19999968 99.19999969-28.8-28.8 99.19999968-99.19999969L388.80000031 480l0-38.4 112.00000032 0L500.79999969 384 388.80000031 384l0-38.4 112.00000032 0L500.79999969 160.00000031000002l38.4 0 0 185.59999969 112.00000031 0L651.2 384l-112.00000031 0 0 57.6 112.00000031 0L651.2 480l-86.4 0L667.20000031 579.19999969z"  horiz-adv-x="1024" />

    
    <glyph glyph-name="15" unicode="&#58936;" d="M489.511311 569.976692M512.001535 834.627211c-248.877277 0-450.629257-201.727421-450.629257-450.625164 0-248.868067 201.75198-450.630281 450.629257-450.630281 248.873184 0 450.625164 201.762213 450.625164 450.630281C962.621583 632.904906 760.874719 834.627211 512.001535 834.627211L512.001535 834.627211zM512.001535-30.574087c-228.965785 0-414.576133 185.631838-414.576133 414.574087 0 228.970902 185.610348 414.574087 414.576133 414.574087 228.961692 0 414.569994-185.603185 414.569994-414.574087C926.571529 155.057751 740.963227-30.574087 512.001535-30.574087L512.001535-30.574087zM284.046776 228.076788l82.226746 0L366.273523 523.597385 302.984081 523.597385l0 19.435655c29.402657 4.983501 51.828412 12.957103 69.270666 22.924105l23.422456 0 0-337.88138 75.748195 0 0-25.415856L284.046776 202.659909 284.046776 228.076788zM518.763542 243.525642l15.947204 20.432355c20.930705-21.927405 47.841611-42.859134 95.185896-42.859134 45.848211 0 84.718497 38.373982 84.718497 97.178273 0 57.809637-32.391734 93.191472-83.223447 93.191472-26.41358 0-43.85481-8.970302-64.287165-22.924105l-18.937305 11.462053 12.458753 165.949566 165.95059 0 0-25.415856L586.540182 540.540266 576.073806 418.446533c17.442254 10.465352 35.881209 17.442254 60.798714 17.442254 59.802014 0 107.643626-35.880185 107.643626-116.613928 0-78.738295-55.815213-123.092479-113.623827-123.092479C574.578756 196.18238 542.187021 220.601536 518.763542 243.525642z"  horiz-adv-x="1024" />

    
    <glyph glyph-name="gouwuche" unicode="&#58920;" d="M1007.4 670.3c-4.6 5.9-11.7 9.7-19.2 9.7L201.2 680 167.8 855.5C165.6 867 155.5 875 143.7 875L34 875C20.5 875 9.6 864 9.6 850.5S20.5 826 34 826l89.5 0L155 650.6c0-0.1 0-0.2 0-0.4l98.8-513.6C256 125.1 267 117 278.7 117l587.2 0c13.5 0 24.5 11 24.5 24.5s-11 24.5-24.5 24.5L298.9 166l-15.1 77.2 612.3-3.2c0 0 0 0 0 0 11.3 0 21.2 9.5 23.8 20.5l92 389C1013.7 656.9 1012 664.5 1007.4 670.3zM876.8 292.3l-602.3 1.2-44.6 233.9L210.5 630l746.8 0L876.8 292.3zM353.1 66.6c-47.2 0-85.6-38.4-85.6-85.6s38.4-85.6 85.6-85.6c47.2 0 85.6 38.4 85.6 85.6S400.3 66.6 353.1 66.6zM353.1-55.8c-20.2 0-36.7 16.5-36.7 36.7 0 20.2 16.5 36.7 36.7 36.7 20.2 0 36.7-16.5 36.7-36.7C389.8-39.3 373.3-55.8 353.1-55.8zM769 66.6c-47.2 0-85.6-38.4-85.6-85.6s38.4-85.6 85.6-85.6c47.2 0 85.6 38.4 85.6 85.6S816.3 66.6 769 66.6zM769-55.8c-20.2 0-36.7 16.5-36.7 36.7 0 20.2 16.5 36.7 36.7 36.7 20.2 0 36.7-16.5 36.7-36.7C805.7-39.3 789.3-55.8 769-55.8z"  horiz-adv-x="1024" />

    
    <glyph glyph-name="7" unicode="&#58937;" d="M194.372408 702.950216C262.357801 770.951983 350.062306 815.067736 446.957123 828.980607 565.382303 846.008422 683.394067 815.810656 779.17041 744.088148c95.80295-71.770604 157.926846-176.541809 174.949544-294.966988 35.121915-244.644883-135.340431-472.129944-379.829771-507.275395-102.519931-14.703887-207.644177 6.78452-296.020994 60.441581-15.10093 9.188266-19.914562 28.883841-10.748808 43.982724 9.258874 14.968923 28.866445 19.909445 43.983747 10.723226 75.691913-46.000684 165.803233-64.377216 253.705236-51.77827 209.518874 30.066783 355.60402 225.082338 325.536214 434.80178-14.569834 101.534488-67.829851 191.294814-149.956314 252.78426C658.688385 754.319164 557.551964 780.141272 456.035896 765.526413c-209.739908-30.05655-355.780029-225.116107-325.648778-434.743452 7.900947-54.882981 26.935466-106.173135 56.719816-152.387689 9.541307-14.924921 5.185093-34.793434-9.586332-44.248783-14.855336-9.581216-34.682917-5.29254-44.243667 9.541307-34.749432 54.092989-57.003272 113.918539-66.261123 177.98774C50.015625 440.105832 80.166319 558.181041 151.985018 653.980921 165.028079 671.438525 179.204963 687.808354 194.372408 702.950216L194.372408 702.950216 194.372408 702.950216 194.372408 702.950216zM194.372408 702.950216M586.08788 566.77579 392.196938 566.77579c-16.800641 0-25.180496 8.379854-25.180496 25.180496 0 11.725042 8.379854 19.279089 25.180496 22.662139l231.661174 0c18.453281-1.691525 28.52466-7.554046 30.217209-17.626449-1.692548-8.419763-5.90243-19.317974-12.591783-32.734542L470.256782 173.957193c-6.728238-11.763928-17.627473-17.626449-32.734542-17.626449-15.109116 0-22.662139 5.862521-22.662139 17.626449-1.691525 5.036713 1.65264 15.108093 10.072403 30.217209l161.1564 360.083032L586.088904 566.77579z"  horiz-adv-x="1024" />

    
    <glyph glyph-name="qiye" unicode="&#59172;" d="M928 64 896 64 896 512c0 70.4-57.6 128-128 128L576 640 576 704c0 70.4-57.6 128-128 128L192 832C121.6 832 64 774.4 64 704l0-640L32 64C14.08 64 0 49.92 0 32 0 14.08 14.08 0 32 0l896 0c17.92 0 32 14.08 32 32C960 49.92 945.92 64 928 64zM512 640l0-64 0-512L128 64 128 704c0 35.2 28.8 64 64 64l256 0c35.2 0 64-28.8 64-64L512 640zM832 64 576 64 576 576l192 0c35.2 0 64-28.8 64-64L832 64zM416 640l-192 0C206.08 640 192 625.92 192 608 192 590.08 206.08 576 224 576l192 0C433.92 576 448 590.08 448 608 448 625.92 433.92 640 416 640zM416 448l-192 0C206.08 448 192 433.92 192 416 192 398.08 206.08 384 224 384l192 0C433.92 384 448 398.08 448 416 448 433.92 433.92 448 416 448zM416 256l-192 0C206.08 256 192 241.92 192 224S206.08 192 224 192l192 0C433.92 192 448 206.08 448 224S433.92 256 416 256zM736 448l-64 0C654.08 448 640 433.92 640 416 640 398.08 654.08 384 672 384l64 0C753.92 384 768 398.08 768 416 768 433.92 753.92 448 736 448zM736 256l-64 0c-17.92 0-32-14.08-32-32s14.08-32 32-32l64 0c17.92 0 32 14.08 32 32S753.92 256 736 256z"  horiz-adv-x="1024" />

    
    <glyph glyph-name="gerenyonghutouxiang" unicode="&#59364;" d="M959.36-24.96c-15.36 181.76-139.52 332.16-307.84 386.56 70.4 45.44 117.12 124.16 117.12 214.4 0 141.44-115.2 256-256.64 256C369.92 832 255.36 717.44 255.36 576c0-90.24 46.72-168.96 117.12-214.4-168.32-54.4-292.48-204.8-307.84-386.56 0-3.2-0.64-5.76 0-10.24C65.92-51.2 80-64 96-64 113.92-64 128-49.28 128-32 144.64 165.76 310.4 320 512 320s366.72-154.24 384-352c0-17.28 14.08-32 32-32 16 0 30.08 12.8 31.36 28.8C960-30.72 959.36-28.16 959.36-24.96zM319.36 576c0 106.24 86.4 192 192.64 192 106.24 0 192.64-85.76 192.64-192 0-106.24-86.4-192-192.64-192C405.76 384 319.36 469.76 319.36 576z"  horiz-adv-x="1024" />

    
    <glyph glyph-name="buoumaotubiao46" unicode="&#58921;" d="M307.88347695 427.95681826c-15.70909131 0-31.41818174 5.97272695-43.3840913 17.91818174l-170.95909132 170.95909131c-7.99772695 7.99772695-7.99772695 20.925 0 28.92272695s20.925 7.99772695 28.92272695 0l170.95909132-170.95909131c8.03863652-7.99772695 20.98636348-7.97727305 28.94318173 0l96.15681827 96.17727305c3.84545479 3.84545479 5.95227305 8.95909131 5.95227305 14.46136347s-2.12727305 10.63636347-5.95227305 14.48181827L247.80847695 770.63181826c-7.99772695 7.99772695-7.99772695 20.925 0 28.92272695s20.925 7.99772695 28.92272696 0l170.71363652-170.71363652c11.55681826-11.55681826 17.93863652-26.97954521 17.93863652-43.40454521s-6.38181826-31.82727305-17.93863652-43.40454522l-96.15681826-96.17727305C339.32211347 433.92954521 323.61302305 427.95681826 307.88347695 427.95681826zM845.30620479-58.575000000000045c-30.21136347 0-60.38181826 11.49545479-83.37272696 34.48636347L512.73575 225.10909131000005c-7.99772695 7.99772695-7.99772695 20.925 0 28.92272695s20.925 7.99772695 28.92272695 0l249.21818174-249.21818174c30.04772695-30.02727305 78.85227305-30.02727305 108.9 1e-8 29.98636347 30.00681826 29.98636347 78.85227305 0 108.9L650.53802305 362.91136348c-7.99772695 7.97727305-7.99772695 20.925 0 28.92272695s20.925 7.99772695 28.92272695-1e-8L928.69938653 142.63636348c45.94090869-45.98181826 45.94090869-120.78409131-1e-8-166.72500001C905.70847695-47.07954520999999 875.51756826-58.575000000000045 845.30620479-58.575000000000045zM384.48575 184.64999999999998c-83.475 0-165.66136347 32.625-228.19090869 95.175C62.42893174 373.67045479 35.51075 518.26363652 89.28575 639.6 93.84711348 649.90909131 105.87438653 654.63409131 116.28575 650.01136348 126.61529521 645.42954521 131.25847695 633.34090869 126.69711347 623.03181826c-46.98409131-105.99545479-23.46136347-232.28181826 58.52045479-314.26363652 88.48636347-88.46590869 222.01363652-108.49090869 332.36590869-49.70454522 9.94090869 5.31818174 22.37727305 1.51363653 27.675-8.44772695 5.31818174-9.98181826 1.53409131-22.35681826-8.44772695-27.675C488.47665869 197.20909130999996 436.21529521 184.64999999999998 384.48575 184.64999999999998zM681.99711348 428.91818174c-1.30909131 0-2.65909131 0.12272695-3.98863653 0.38863652-11.08636347 2.18863653-18.28636347 12.94772695-16.09772695 24.03409131 18.34772695 92.76136348-10.53409131 188.01818174-77.29772695 254.80227305-82.02272695 82.00227305-208.35 105.48409131-314.30454522 58.5C259.87665869 762.0613634700001 247.84938652 766.7454547899999 243.30847695 777.05454521 238.72665869 787.38409131 243.39029521 799.47272695 253.71984131 804.03409131c121.25454521 53.79545479 265.92954521 26.91818174 359.81590869-66.96818174 76.43863652-76.43863652 109.51363652-185.48181826 88.52727305-291.68181826C700.11984131 435.64772695 691.56984131 428.91818174 681.99711348 428.91818174z"  horiz-adv-x="1026" />

    
    <glyph glyph-name="xinxi" unicode="&#58912;" d="M103.30741513 18.640514059999987a38.10061406 38.10061406 0 0 0-38.10061318 38.10061318V708.0584209a38.10061406 38.10061406 0 0 0 38.10061318 38.10061406h818.7694919a38.10061406 38.10061406 0 0 0 38.10061318-38.10061407v-497.98137303a38.10061406 38.10061406 0 0 0-38.10061318-38.10061407H361.57877685L123.38008877 24.35560547c-6.14054883-3.81006123-13.10026113-5.71509229-20.07267364-5.71509141z m38.10061407 651.31729278v-544.78162705l189.25209932 117.28003974a38.06251348 38.06251348 0 0 0 20.07267362 5.71509229h533.24349083V669.95780684H141.4080292zM283.99957666 453.23516573m-47.8289707-1e-8a47.8289707 47.8289707 0 1 1 95.65794141 0 47.8289707 47.8289707 0 1 1-95.65794141 0ZM515.31475362 453.23516573m-47.82897071-1e-8a47.8289707 47.8289707 0 1 1 95.65794141 0 47.8289707 47.8289707 0 1 1-95.65794141 0ZM746.62993057 453.23516573m-47.8289707-1e-8a47.8289707 47.8289707 0 1 1 95.65794052 0 47.8289707 47.8289707 0 1 1-95.65794052 0Z"  horiz-adv-x="1024" />

    
    <glyph glyph-name="shouji" unicode="&#58942;" d="M737.004 829.886H287.49c-29.913 0-54.156-24.243-54.156-54.15v-785.733c0-29.909 24.243-54.15 54.156-54.15h449.513c29.903 0 54.149 24.242 54.149 54.15V775.736c0 29.902-24.246 54.15-54.15 54.15z m-274.905-67.702h100.287c7.917 0 14.331-6.41 14.331-14.327 0-7.912-6.414-14.328-14.331-14.328H462.099c-7.912 0-14.323 6.416-14.323 14.328 0 7.916 6.411 14.327 14.323 14.327z m50.142-783.833c-24.53 0-44.41 19.885-44.41 44.41 0 24.53 19.88 44.421 44.41 44.421 24.532 0 44.416-19.89 44.416-44.42 0-24.526-19.884-44.41-44.416-44.41z m226.366 126.075h-452.73V686.09h452.73v-581.665z m0 0"  horiz-adv-x="1024" />

    
    <glyph glyph-name="shizhong" unicode="&#59275;" d="M512-36c-231 0-420 189-420 420s189 420 420 420 420-189 420-420-189-420-420-420z m0 60c198 0 360 162 360 360s-162 360-360 360-360-162-360-360 162-360 360-360z m30 540v-198l3-3 147-147c12-12 12-30 0-42s-30-12-42 0l-147 147c-3 3-21 21-21 33v210c0 18 12 30 30 30s30-12 30-30z"  horiz-adv-x="1024" />

    
    <glyph glyph-name="shouye" unicode="&#58880;" d="M989.867 361.244L512 839.111 34.133 361.244l45.511-39.822 91.023 91.022V-71.11000000000001H455.11V156.44399999999996H568.89V-71.11000000000001h284.444V412.444l91.023-91.022 45.51 39.822zM796.444-14.22199999999998H625.778V213.33299999999997H398.222v-227.555H227.556V469.333L512 759.467l284.444-290.134v-483.555z"  horiz-adv-x="1024" />

    
    <glyph glyph-name="kefu" unicode="&#58950;" d="M848 512h-33.6C806.4 672 675.2 800 512 800s-294.4-128-302.4-288H176c-52.8 0-96-43.2-96-96v-64c0-52.8 43.2-96 96-96h32c35.2 0 64 28.8 64 64V496c0 132.8 107.2 240 240 240s240-107.2 240-240v-224c0-97.6-67.2-179.2-156.8-201.6-11.2 16-30.4 25.6-51.2 25.6h-64c-35.2 0-64-28.8-64-64s28.8-64 64-64h64c25.6 0 49.6 16 59.2 38.4C720 32 808 132.79999999999995 816 256h32c52.8 0 96 43.2 96 96v64c0 52.8-43.2 96-96 96zM176 320c-17.6 0-32 14.4-32 32v64c0 17.6 14.4 32 32 32h32v-128h-32z m704 32c0-17.6-14.4-32-32-32h-32v128h32c17.6 0 32-14.4 32-32v-64z"  horiz-adv-x="1024" />

    
    <glyph glyph-name="shezhi" unicode="&#59270;" d="M922.71687219 139.38937499999997L690.40220656 367.70068313c54.98405062 123.76735781 29.15169656 268.23264188-67.09773375 365.16608718C561.73545969 794.80321406 479.91941469 828.93008719 392.86149406 828.93008719c-35.91989437 0-71.33805-5.92397156-105.22988344-17.51097188-18.19594687-6.1877925-31.67861812-21.22460719-36.10217062-40.21105687-4.55594156-19.51217156 1.080225-39.63256969 15.11644125-53.79829688l139.17064312-140.09449594-14.82479906-74.65451531-73.84002843-14.85261937-138.98740875 139.90934156c-10.82431969 10.90202625-25.22796469 16.85381906-40.55450251 16.85381906-24.2532675 0-45.71291531-15.24883125-53.3502825-37.92109406-44.21249531-130.98261188-1.23755813-276.97421719 106.99124625-363.34908188 56.35399969-45.00299812 127.82252062-69.7829475 201.242355-69.78294843 45.95179312 0 91.58796 9.7172325 133.08933938 28.22880468L757.84242688-26.564336249999997c22.04197125-22.14654 51.35100094-34.36575094 82.55474343-34.36575094 31.20565969 0 60.51469031 12.21921094 82.55666063 34.41947438 45.34356656 45.66111 45.34356656 119.97409781-0.23695875 165.89998781z m-38.05348313-127.92900844c-23.67478125-23.91078094-64.67442094-24.06907312-88.77035625 0.23695969l-260.0407725 255.54143156-17.37954187-9.11188406c-38.448735-20.03885344-82.0040775-30.70488094-125.97961406-30.70488094-61.22556656 0-120.76747781 20.5923975-167.58748032 57.98584969-90.53267813 72.286845-126.53123906 194.47319812-89.53399687 304.02014625l4.50413719 0.26190188 159.4742775-160.52764125 137.51289093 27.70308187 27.49394438 138.09233719-159.39753 160.50269812c-1.26442031 1.23851812-1.05336375 2.84446594 0.15733312 4.95023438 28.25566594 9.66542719 57.77671219 14.56289719 87.74481375 14.56289719 72.57464906 0 140.80537219-28.43986125 192.154455-80.1064875 84.42451125-85.02985969 104.01630937-213.80021625 48.76939688-320.47775532l-9.16272938-17.69708625 260.04173156-255.53855343c24.54299062-24.70128281 24.54299062-64.96510406-0.00095906-89.69324907z"  horiz-adv-x="1024" />

    
    <glyph glyph-name="weizhi" unicode="&#58889;" d="M512-96C431.20477156-96 122.81510937 268.37375719 122.81510937 474.81510938a389.18489063 389.18489063 0 0 0 778.36978126 0c0-206.44135219-308.23061625-570.81510938-389.18489063-570.81510938z m0 944.09542781A373.75745531 373.75745531 0 0 1 138.71968156 474.81510938c0-205.16898562 308.07157031-554.91053719 373.28031844-554.91053719s373.28031844 349.90059656 373.28031844 554.91053719A373.59840938 373.59840938 0 0 1 512 848.09542781zM512 357.91650094a153.16103344 153.16103344 0 1 0 153.16103344 153.16103344 153.32007938 153.32007938 0 0 0-153.16103344-153.16103344z m0 290.41749469a137.25646125 137.25646125 0 1 1 137.25646125-137.25646126 137.41550719 137.41550719 0 0 1-137.25646125 137.25646126z"  horiz-adv-x="1024" />

    
    <glyph glyph-name="liwu-" unicode="&#59054;" d="M736.04462891 641.88867188a135.18193359 135.18193359 0 0 1 18.39199218 67.78124999C754.43662109 771.06503906 712.18232422 833.20019531 631.36425781 833.20019531c-37.35791016 0-69.10664063-12.98232422-94.39541015-38.70527344-13.59052734-13.76982422-23.92119141-30.28535156-32.00800782-47.53037109-7.92333984 17.30742187-18.06943359 33.69814453-31.3734375 47.46708984C448.42958984 820.16425781 416.80742188 833.20019531 379.50224609 833.20019531c-47.88017578 0-76.75048828-21.35390625-92.55322265-39.27568359-19.67431641-22.31542969-30.51298828-52.21582031-30.51298828-84.24492188a135.27773437 135.27773437 0 0 1 18.38583984-67.79091797H131.23496094c-38.23505859 0-69.22880859-30.99375-69.2288086-69.22880859v-173.62001953c0-38.22978516 30.99375-69.2296875 69.2288086-69.2296875v-293.49931641a101.48730469 101.48730469 0 0 1 29.73691406-71.77939453 101.49257813 101.49257813 0 0 1 71.78466797-29.73251953h558.47724609a101.50664063 101.50664063 0 0 1 71.79082031 29.71054688 101.49169922 101.49169922 0 0 1 29.73691407 71.78027343V329.74687500000005c38.23505859 0 69.23320312 30.99462891 69.23320312 69.2296875V586.04912109a55.83955078 55.83955078 0 0 1-55.83867187 55.83955078H736.04462891zM578.79423828 753.24873047c14.06601563 14.2453125 31.18886719 21.19042969 52.51728516 21.19042969 47.45742188 0 64.31132812-34.88642578 64.31132812-64.77011719 0-17.96835938-6.03632812-35.29951172-16.58408203-47.53212891-11.54179687-13.415625-27.49746094-20.24912109-47.61650391-20.24912109l-93.7828125 0.75322265c3.56484375 34.21582031 14.24443359 83.29482422 41.10292969 110.60683594h0.05185547zM315.21640625 709.66992188c0 17.70380859 5.58808594 33.79306641 15.83525391 45.42802734 11.31416016 12.83994141 27.61259766 19.38427734 48.44970703 19.38427734 21.10078125 0 38.02324219-6.83349609 51.73505859-20.8836914 26.61503906-27.33837891 36.77167969-77.09326172 39.94101563-111.70898438H379.50136719c-50.75332031-0.00087891-64.28496094 42.60585938-64.28496094 67.78037109zM160.63876953 583.10566406h241.1569336v-194.57578125H160.63876953a39.86367188 39.86367188 0 0 0-28.19443359 11.67539063 39.88212891 39.88212891 0 0 0-11.67890625 28.1961914V543.2349609400001a39.85839844 39.85839844 0 0 0 11.67890625 28.19267578 39.85488281 39.85488281 0 0 0 28.19443359 11.67802734z m29.39853516-253.35878906h211.75839844v-336.17636719H235.85732422c-25.29404297 0-45.80947266 20.50400391-45.81914063 45.79892578V329.74687500000005z m270.53964844-336.17636719v589.53515625h102.85839843v-589.53515625h-102.85839843z m327.55166015 0H622.20605469V329.74687500000005h211.73115234v-290.37744141c-0.01054687-25.28964844-20.51367188-45.79277344-45.80859375-45.79892578z m75.21328125 394.959375H622.20605469V583.10566406h241.13583984a39.86191406 39.86191406 0 0 0 28.19355469-11.67802734 39.88037109 39.88037109 0 0 0 11.67890625-28.19267578v-114.8334961a39.90410156 39.90410156 0 0 0-11.67890625-28.1961914 39.87421875 39.87421875 0 0 0-28.19355469-11.67539063z m0 0"  horiz-adv-x="1024" />

    
    <glyph glyph-name="F" unicode="&#58911;" d="M775.41463408-66h-526.82926816C145.41463408-66 62 17.41463408000004 62 120.58536591999996v526.82926816C62 750.58536592 145.41463408 834 248.58536592 834h526.82926816C878.58536592 834 962 750.58536592 962 647.41463408v-526.82926816c0-103.17073184-83.41463408-186.58536592-186.58536592-186.58536592zM248.58536592 812.04878028C158.58536592 812.04878028 83.95121972 737.41463408 83.95121972 647.41463408v-526.82926816C83.95121972 30.58536591999996 158.58536592-44.04878027999996 248.58536592-44.04878027999996h526.82926816c90 0 164.63414619 74.63414619 164.63414619 164.6341462v526.82926816C940.04878028 737.41463408 865.41463408 812.04878028 775.41463408 812.04878028h-526.82926816zM220.04878028-50.634146190000024l72.43902421 120.73170674V754.97560987h518.04878116v-129.51219552H446.1463417v-177.80487802h313.90243857v-127.31707266H446.1463417V-0.14634169999999358H369.31707354z"  horiz-adv-x="1024" />

    
    <glyph glyph-name="weibo" unicode="&#58888;" d="M2.778359 896zM763.377135 393.466074q-15.744776 3.155041-20.445007 9.433743t-1.57752 11.548515l3.15504 5.237482q1.04027 1.04027 2.114772 3.155041t4.197212 8.929773 4.733512 13.630005 2.61779 16.785046-0.5363 18.900768-6.311983 19.404738-13.126986 18.900768q-14.703556 14.703556-38.305506 18.900768t-47.202949 0.5363-44.582307-9.433744-34.612263-11.012215l-13.630005-6.311983q-10.507294-3.155041-17.323247-4.197213t-10.507294 0.5363-5.774733 3.155041-1.57752 7.352253 1.040269 9.970044 2.61779 13.126986 3.155041 14.167256q0 12.588784-1.57752 23.600048t-6.815003 24.641269-15.208476 22.023478-25.17947 13.630005-39.346727 3.155041-54.554251-12.588784q-36.727034-12.588784-74.494339-37.231004t-65.564564-51.397309-50.89429-51.935511-35.686765-40.924246l-11.548515-16.785046q-34.612263-45.120508-51.397309-90.240066t-15.744776-68.185207v-22.023479q6.311984-50.357039 30.952302-90.240065t58.750513-64.524295 80.269071-41.964516 88.662545-25.179471 89.703765-11.012215q77.651281-6.311984 161.042112 12.052485t155.269281 63.484025T849.383855 202.60416599999996q17.826266 36.727034 18.364468 69.258758t-11.012215 52.97578-29.912032 36.190734-34.612263 23.09703-28.83753 9.433743zM443.405781 67.18368599999997q-113.303814-5.237482-192.500285 44.079288t-79.19457 124.852328q0 74.494338 78.691551 128.51229t193.036585 59.287764 193.036585-37.767304 78.69155-117.500075q0-75.53651-80.269071-135.864543t-191.459064-65.564565zM412.99073 357.813541q-30.415051-3.155041-54.554252-14.167256t-37.767304-25.17947-23.097029-30.415051-13.126986-31.993522-4.733512-28.837531-1.04027-20.445007l1.04027-8.393474v-4.197212q0-3.155041 2.114771-12.588784t5.774733-17.323248 12.052484-17.323247 19.941989-15.744777q69.258758-33.571993 129.04859-20.445007t96.517817 60.327083q14.703556 17.826266 19.404737 44.079287t-2.114771 52.975781-23.600048 48.779518-49.820739 34.109245-76.073761 6.815002z m-37.769206-198.308299q-6.311984-1.04027-12.052484-0.5363t-10.507294 2.114771-9.433744 3.65806-7.855272 5.774733-5.774733 7.352253-4.197212 8.393474-1.577521 9.970043q0 11.548515 6.311984 22.559779t17.323248 18.900768 24.641268 8.929774q9.433743 1.04027 18.364468-0.5363t15.208477-5.237482 11.012215-8.393474 6.815002-11.012215 2.114771-13.630005q0-11.548515-6.815002-22.023479t-18.364468-17.826266-25.179471-8.393474z m89.166515 75.53651q-7.352253-5.237482-15.208476-4.733513t-11.012215 6.815003l-2.114771 4.197212q-1.04027 2.114771-1.04027 4.197213v4.197212q0 3.155041 1.04027 5.237482l2.114771 4.197212q1.04027 2.114771 3.155041 3.155041l3.155041 4.197213q8.393474 6.311984 16.248746 5.237482t11.012214-8.393474q3.155041-4.197212 2.617791-9.433744t-3.155041-9.970043-6.815003-8.929774z m372.443165 219.289606q6.311984 0 11.548515 3.155041t8.393474 7.855272 4.197212 9.970043q1.04027 1.04027 1.04027 3.155041 12.588784 119.615797-83.929984 136.400843-28.334511 5.237482-52.471811 1.04027-7.352253 0-12.588784-3.65806t-8.929774-9.433743-3.658059-12.052485q0-10.507294 7.352253-17.826266t17.826266-7.352253q81.847542 18.900768 88.125294-52.471811 2.114771-17.826266-2.114771-33.571993 0-10.507294 7.352253-17.826267t17.826267-7.352253z m-17.826266 295.833104q-46.160778 10.507294-123.812059-4.197212-1.04027 0-2.114771-1.04027l-1.04027-2.114771-1.04027-1.040269q-11.548515-3.155041-18.900768-13.126986t-7.352253-21.518559q0-15.744776 10.507294-26.21974t25.179471-10.507294h3.155041q1.04027 0 4.733512 1.04027t7.855272 1.57752 8.929774 2.114771 8.393474 3.155041 14.167255 1.577521 25.715771-1.577521 33.571993-7.855272 36.727034-15.744776 36.727035-26.21974 31.993522-38.808525q27.294242-61.906505 10.507294-119.615797 0-1.04027-0.5363-2.114771t-1.57752-5.237482-2.114772-7.855272-2.114771-9.433744-1.04027-9.970043q0-9.433743 5.237482-15.744776t13.126987-8.929774 18.364468-2.61779q29.375732 0 34.612263 35.686765 12.588784 40.924247 14.167255 78.15525t-5.237482 65.564565-20.445007 52.97578-31.489552 41.964517-39.883026 31.489552-42.501768 22.559778-42.501767 13.630005z"  horiz-adv-x="1049" />

    
    <glyph glyph-name="youjiantou" unicode="&#58908;" d="M314.05700741-48.052148149999994c-9.46631111 0-19.05398518 3.64088889-26.33576296 10.92266667-14.56355555 14.56355555-14.56355555 38.10797037 0 52.67152593l370.76385185 370.76385185-370.76385185 370.76385185c-14.56355555 14.56355555-14.56355555 38.10797037 0 52.67152593s38.10797037 14.56355555 52.67152592 0l397.09961481-397.09961483c14.56355555-14.56355555 14.56355555-38.10797037 0-52.67152592L340.39277037-37.12948147999998c-7.28177778-7.28177778-16.86945185-10.92266667-26.33576296-10.92266667z"  horiz-adv-x="1024" />

    
    <glyph glyph-name="search" unicode="&#58882;" d="M966.87485787-21.306987469999967L773.71680237 171.85106804999998c62.15078242 73.94402608 96.02884898 166.45173097 96.02884899 264.18937047 0 109.89335387-42.79743525 213.21045333-120.49562233 290.90864039C671.53889659 804.66021136 568.23474252 847.44470124 458.34138864 847.44470124c-109.89335387 0-213.21045333-42.79743525-290.90864039-120.49562233s-120.49562231-181.01528652-120.49562233-290.90864039 42.79743525-213.21045333 120.49562233-290.90864039 181.01528652-120.49562231 290.90864039-120.49562232c98.66970706 0 192.01886183 34.5253357 266.31241323 97.8153118l192.98976554-192.98976553a34.70009837 34.70009837 0 0 1 24.60917254-10.20096158c8.90642331 0 17.81284661 3.40463565 24.60917255 10.20096158a34.70009837 34.70009837 0 0 1 10.20096158 24.60917253c0 8.91936869-3.39169027 17.825792-10.18801621 24.62211792zM116.55739417 436.04043852c0 188.45888158 153.32511289 341.78399447 341.78399447 341.78399446 188.45888158 0 341.78399447-153.32511289 341.78399447-341.78399446S646.80027022 94.25644405000003 458.34138864 94.25644405000003c-188.45888158 0-341.78399447 153.32511289-341.78399447 341.78399447z"  horiz-adv-x="1024" />

    
    <glyph glyph-name="zuojiantou_huaban" unicode="&#58939;" d="M648.41844306-84.23449283000002L224.10763378 340.06337106c-24.23375645 24.23375645-24.23375645 63.63950143 0 87.87325788L648.41844306 852.23449283c16.18172839 16.18172839 42.39612839 16.18172839 58.57785679 0s16.18172839-42.39612839 0-58.57785678L297.32671842 384l409.65663605-409.65663605c16.18172839-16.18172839 16.18172839-42.39612839 0-58.57785678-8.09086419-8.09086419-18.69313264-12.14276898-29.28245571-12.142769s-21.20453689 4.0519048-29.2824557 12.142769zM282.2841837 369.35877215000005h0.40130687-0.40130687z"  horiz-adv-x="1024" />

    
    <glyph glyph-name="arrowRight" unicode="&#58973;" d="M882.90463289 317.939712H71.19030045a33.030144 33.030144 0 0 0-33.030144 33.030144V417.030144a33.030144 33.030144 0 0 0 33.030144 33.030144h811.71433244zM568.098816 46.12551111000005l-46.60337778 46.60337778a32.91363555 32.91363555 0 0 0 0 46.60337778l244.66773333 244.66773333-244.66773333 244.66773333a32.97188978 32.97188978 0 0 0 0 46.60337778l46.60337778 46.60337778a32.97188978 32.97188978 0 0 0 46.60337778 0l337.87448889-337.87448889-337.87448889-337.87448889a32.97188978 32.97188978 0 0 0-46.60337778 0z"  horiz-adv-x="1024" />

    
    <glyph glyph-name="piaoju" unicode="&#59569;" d="M512 832c247.424 0 448-200.576 448-448S759.424-64 512-64 64 136.57600000000002 64 384 264.576 832 512 832z m0-64c-212.077 0-384-171.923-384-384s171.923-384 384-384 384 171.923 384 384-171.923 384-384 384z m154.856-173.373c12.497-12.496 12.497-32.758 0-45.254l-89.987-89.987h53.245c17.674 0 32-14.327 32-32 0-17.674-14.326-32-32-32h-92v-50h92c17.674 0 32-14.327 32-32 0-17.674-14.326-32-32-32h-92v-94c0-17.674-14.326-32-32-32-17.673 0-32 14.326-32 32v94h-92c-17.673 0-32 14.326-32 32 0 17.673 14.327 32 32 32h92v50h-92c-17.673 0-32 14.326-32 32 0 17.673 14.327 32 32 32h64.245l-89.986 89.987C344 561.744 343.877 581.726 356 594.25l0.372 0.377C368.744 607 388.726 607.123 401.25 595l0.377-0.372 109.987-109.986 109.988 109.986c12.496 12.497 32.758 12.497 45.254 0z"  horiz-adv-x="1024" />

    
    <glyph glyph-name="sim" unicode="&#59718;" d="M231.1015625 675.53320313L113.6796875 600.03515625C81.42382812 579.29296875 62 543.69726563 62 505.37695313V130.875c0-31.02539063 25.22460938-56.25 56.25-56.25h787.5c31.02539063 0 56.25 25.22460938 56.25 56.25V637.125c0 31.02539063-25.22460938 56.25-56.25 56.25H291.921875c-21.62109375 0-42.71484375-6.24023438-60.8203125-17.84179688zM891.6875 130.875H132.3125c-7.734375 0-14.0625 6.328125-14.0625 14.0625V505.37695313c0 19.16015625 9.75585938 37.00195313 25.83984375 47.28515624L261.51171875 628.16015625c9.05273438 5.80078125 19.59960938 8.96484375 30.41015625 8.96484375H891.6875c7.734375 0 14.0625-6.328125 14.0625-14.0625v-478.125c0-7.734375-6.328125-14.0625-14.0625-14.0625zM483.875 524.625v-281.25c0-31.02539063 25.22460938-56.25 56.25-56.25h225c31.02539063 0 56.25 25.22460938 56.25 56.25V524.625c0 31.02539063-25.22460938 56.25-56.25 56.25H540.125c-31.02539063 0-56.25-25.22460938-56.25-56.25z m70.3125 0h38.671875c1.93359375 0 3.515625-1.58203125 3.515625-3.515625v-49.21875c0-1.93359375-1.58203125-3.515625-3.515625-3.515625h-49.21875c-1.93359375 0-3.515625 1.58203125-3.515625 3.515625v38.671875c0 7.734375 6.328125 14.0625 14.0625 14.0625z m-10.546875-84.375h49.21875c1.93359375 0 3.515625-1.58203125 3.515625-3.515625v-105.46875c0-1.93359375-1.58203125-3.515625-3.515625-3.515625h-49.21875c-1.93359375 0-3.515625 1.58203125-3.515625 3.515625V436.734375c0 1.93359375 1.58203125 3.515625 3.515625 3.515625z m-3.515625-182.8125v38.671875c0 1.93359375 1.58203125 3.515625 3.515625 3.515625h49.21875c1.93359375 0 3.515625-1.58203125 3.515625-3.515625v-49.21875c0-1.93359375-1.58203125-3.515625-3.515625-3.515625h-38.671875c-7.734375 0-14.0625 6.328125-14.0625 14.0625z m137.109375-14.0625h-49.21875c-1.93359375 0-3.515625 1.58203125-3.515625 3.515625V521.109375c0 1.93359375 1.58203125 3.515625 3.515625 3.515625h49.21875c1.93359375 0 3.515625-1.58203125 3.515625-3.515625v-274.21875c0-1.93359375-1.58203125-3.515625-3.515625-3.515625z m73.828125 0h-38.671875c-1.93359375 0-3.515625 1.58203125-3.515625 3.515625v49.21875c0 1.93359375 1.58203125 3.515625 3.515625 3.515625h49.21875c1.93359375 0 3.515625-1.58203125 3.515625-3.515625v-38.671875c0-7.734375-6.328125-14.0625-14.0625-14.0625z m10.546875 84.375h-49.21875c-1.93359375 0-3.515625 1.58203125-3.515625 3.515625V436.734375c0 1.93359375 1.58203125 3.515625 3.515625 3.515625h49.21875c1.93359375 0 3.515625-1.58203125 3.515625-3.515625v-105.46875c0-1.93359375-1.58203125-3.515625-3.515625-3.515625z m0 140.625h-49.21875c-1.93359375 0-3.515625 1.58203125-3.515625 3.515625v49.21875c0 1.93359375 1.58203125 3.515625 3.515625 3.515625h38.671875c7.734375 0 14.0625-6.328125 14.0625-14.0625v-38.671875c0-1.93359375-1.58203125-3.515625-3.515625-3.515625z"  horiz-adv-x="1024" />

    


  </font>
</defs>
</svg>
